# xmcd
#
# Track frame offsets: 
#        150
#        20371
#        41295
#        47263
#        62027
#        79707
#        105418
#        144400
#        179014
#        208948
#        225522
#        247751
#        277510
#
# Disc length: 3968 seconds
#
# Revision: 0
# Processed by: cddbd v1.5.2PL0 Copyright (c) Steve Scherf et al.
# Submitted via: ExactAudioCopy v0.99pb4
#
DISCID=990f7e0d
DTITLE=Your News Vehicles - Red Hot Zen
DYEAR=2010
DGENRE=Alt Country
TTITLE0=Hell's Paradise
TTITLE1=Tornadic Circulations
TTITLE2=Lockdown Intro
TTITLE3=Lockdown
TTITLE4=Jibbett's Island Blues
TTITLE5=Cool Side of the Stove
TTITLE6=You Wish
TTITLE7=Family Tree
TTITLE8=Song about a Bracelet
TTITLE9=The Queen of Beckley W.V.
TTITLE10=Spleen
TTITLE11=Sister Tequila
TTITLE12=Lil' White Churches From Hell
EXTD=
EXTT0=
EXTT1=
EXTT2=
EXTT3=
EXTT4=
EXTT5=
EXTT6=
EXTT7=
EXTT8=
EXTT9=
EXTT10=
EXTT11=
EXTT12=
PLAYORDER=
